<?xml version="1.0" encoding="utf-8"?>
<!-- Generator: Adobe Illustrator 22.0.1, SVG Export Plug-In . SVG Version: 6.00 Build 0)  -->
<svg version="1.1" id="Layer_1" xmlns="http://www.w3.org/2000/svg" xmlns:xlink="http://www.w3.org/1999/xlink" x="0px" y="0px"
	 width="195px" height="72px" viewBox="0 0 195 72" style="enable-background:new 0 0 195 72;" xml:space="preserve">
<style type="text/css">
	.st0{fill:#00A9CE;}
	.st1{fill:#FFFFFF;}
	.st2{fill:#231F20;}
</style>
<path class="st0" d="M195,50.8c0,2.3-1.9,4.2-4.2,4.2H4.2C1.9,55,0,53.1,0,50.8V4.1C0,1.9,1.9,0,4.2,0h186.7c2.3,0,4.2,1.9,4.2,4.1
	L195,50.8L195,50.8z"/>
<path class="st1" d="M180.3,26.6c0-1.5-0.6-2.7-1.7-3.8c-1.2-1-2.5-1.5-4.1-1.5h-10.7c-1.6,0-3,0.5-4.1,1.5s-1.7,2.3-1.7,3.8v7.9
	c0,1.5,0.6,2.7,1.7,3.8c1.2,1,2.5,1.5,4.1,1.5h14.7c1,0,1.5-0.8,1.5-1.7s-0.5-1.8-1.5-1.8h-14c-0.8,0-1.5,0-2.1-0.5
	s-0.7-0.9-0.7-1.7v-1.8h12.8c1.6,0,2.9-0.5,4-1.5C179.7,29.8,180.3,28.1,180.3,26.6 M177,26.8c0,0.2,0,0.9-0.6,1.4s-1.2,0.6-1.9,0.6
	h-12.8v-2.2c0-0.7,0.1-1,0.7-1.4c0.6-0.4,1.4-0.4,2.2-0.4h10c0.8,0,1.4,0.1,2,0.5C177,25.9,177,26.5,177,26.8 M156,23
	c0-0.9-0.5-1.7-1.5-1.7h-3.4c-1.1,0-1.4,0.2-2.3,0.8c-0.2-0.5-1.1-0.8-1.8-0.8h-0.3c-1,0-1.5,0.5-1.5,1.4v15.7
	c0,0.9,0.9,1.4,1.9,1.4s1.8-0.5,1.8-1.4V27.3c0-0.7-0.1-1.3,0.5-1.8s0.9-0.7,1.7-0.7h3.4C155.5,24.8,156,24,156,23 M141.7,38.4V26.6
	c0-1.5-0.9-3.1-2.1-4.1c-1.2-1-2.9-1.2-4.5-1.2H122c-1,0-1.5,0.8-1.5,1.7c0,0.9,0.5,1.7,1.5,1.7h13.1c0.8,0,1.4-0.1,2,0.4
	s0.8,1.4,0.8,2.1v1.5h-13.5c-1.6,0-3,0.5-4.1,1.6c-1.2,1-1.7,2.6-1.7,4.1s0.6,2.7,1.7,3.8c1.1,1,2.5,1.5,4.1,1.5h10.7
	c1.1,0,2.1-0.3,3-0.8c0.2,0.5,1,0.8,1.7,0.8C140.8,39.8,141.7,39.3,141.7,38.4 M138,34.3c0,0.7-0.3,1.1-0.8,1.5
	c-0.6,0.5-1.2,0.7-2,0.7h-10c-0.8,0-1.8-0.2-2.4-0.7c-0.6-0.6-0.5-0.9-0.5-1.7c0-0.7,0.1-1.2,0.6-1.7c0.6-0.5,1.4-0.6,2.2-0.6H138
	L138,34.3L138,34.3z M117.9,23.1c0.1-0.2,0.1-0.4,0.1-0.6c0-0.9-0.8-1.4-1.8-1.4c-0.7,0-1.5,0.3-1.8,0.8l-4.9,12.5L104,22
	c-0.3-0.6-1.1-0.8-1.7-0.8c-1,0-1.9,0.5-1.9,1.4c0,0.2,0,0.4,0.1,0.6l1.7,3.7l-3.4,7.7L93.1,22c-0.2-0.6-0.7-0.8-1.4-0.8
	c-1.3,0-2.2,0.3-2.2,1.4c0,0.3,0,0.3,0.2,0.7l7.2,15.6c0.4,0.8,1,1,2,1c0.6,0,1.3-0.5,1.5-1l3.7-8.1l3.8,8.1c0.3,0.7,1.1,1,1.7,1
	s1.5-0.4,1.8-1L117.9,23.1L117.9,23.1z M72.1,28.3c-0.6-0.5-0.8-1-0.8-1.7s0.1-1,0.6-1.5c0.7-0.4,1-0.4,1.8-0.4h10.9
	c1,0,1.5-0.8,1.5-1.7c0-0.9-0.5-1.7-1.5-1.7h-11c-1.6,0-3,0.5-4.1,1.6c-1.2,1-1.7,2.3-1.7,3.8s0.6,3.1,1.7,4.1s2.5,1.6,4.1,1.6h10.6
	c0.8,0,1.4,0.1,2,0.6c0.4,0.5,0.6,0.8,0.6,1.5s-0.2,1.1-0.7,1.4c-0.6,0.4-1,0.5-1.8,0.5h-15c-1,0-1.5,0.8-1.5,1.8
	c0,0.9,0.5,1.7,1.5,1.7h15c1.5,0,2.9-0.5,4-1.5c1.2-1,1.8-2.3,1.8-3.8s-0.5-2.9-1.7-4c-1.1-1-2.6-1.7-4.2-1.7H74.1
	C73.3,28.8,72.6,28.8,72.1,28.3 M64.6,38.4V26.6c0-1.5-0.9-3.1-2.1-4.1c-1.1-1-2.9-1.2-4.5-1.2H43.6c-1,0-1.5,0.8-1.5,1.7
	c0,0.9,0.5,1.7,1.5,1.7H58c0.8,0,1.4-0.1,2,0.4s0.8,1.4,0.8,2.1v1.5H47.4c-1.6,0-3,0.5-4.1,1.6c-1.1,1-1.7,2.6-1.7,4.1
	s0.6,2.7,1.7,3.8c1.2,1,2.5,1.5,4.1,1.5H58c1.1,0,2.1-0.3,3-0.8c0.2,0.5,1,0.8,1.7,0.8C63.8,39.8,64.6,39.3,64.6,38.4 M60.9,34.3
	c0,0.7-0.3,1.1-0.8,1.5c-0.6,0.5-1.2,0.7-2,0.7h-10c-0.8,0-1.8-0.1-2.3-0.7c-0.5-0.6-0.5-1.2-0.5-1.7c0-0.7,0.1-1.2,0.6-1.7
	c0.6-0.5,1.4-0.6,2.2-0.6h12.8C60.9,31.8,60.9,34.3,60.9,34.3z M37,38.2c1.1-1.1,1.7-2.3,1.7-3.9v-7.6c0-1.5-0.6-2.8-1.7-3.9
	s-2.5-1.6-4.2-1.6H22.1c-1,0-2,0.2-2.9,0.7v-9c0-1-0.8-1.4-1.8-1.4s-1.8,0.5-1.8,1.4v25.3c0,0.9,0.9,1.4,1.8,1.4
	c0.7,0,1.5-0.3,1.7-0.8c0.9,0.5,1.9,0.8,3,0.8h10.7C34.4,39.8,35.8,39.3,37,38.2 M35,33.7c0,0.7,0.1,1.5-0.5,2s-0.9,0.5-1.7,0.5
	H22.1c-0.8,0-1.5,0-2-0.4c-0.6-0.5-0.9-1.1-0.9-1.8v-6.5c0-0.8,0.3-1.4,0.9-1.9s1.2-0.8,2-0.8h10.7c0.8,0,1.2,0.3,1.7,0.8
	s0.5,1.1,0.5,1.9V33.7z"/>
<path class="st2" d="M18.1,69.4c-1,0-1.9-0.4-2.5-1.1l0.7-0.7c0.5,0.5,1.1,0.8,1.8,0.8c1,0,1.4-0.3,1.4-1c0-0.5-0.4-0.8-1.6-1.1
	c-1.5-0.4-2.2-0.8-2.2-2s1-1.9,2.3-1.9c0.9,0,1.7,0.3,2.3,0.9L19.7,64c-0.4-0.4-0.9-0.7-1.6-0.7c-0.8,0-1.2,0.4-1.2,0.9
	c0,0.5,0.3,0.7,1.5,1.1c1.4,0.4,2.2,0.9,2.2,2.1S19.8,69.4,18.1,69.4z M22.6,63.5c-0.4,0-0.7-0.3-0.7-0.7s0.3-0.7,0.7-0.7
	c0.4,0,0.7,0.3,0.7,0.7C23.2,63.2,22.9,63.5,22.6,63.5z M22.1,69.3v-5.2h1v5.2H22.1z M30.7,69.3v-2.9c0-1.1-0.3-1.4-1-1.4
	s-1,0.5-1,1.3v3h-1v-2.9c0-1.1-0.3-1.4-1-1.4s-1,0.5-1,1.3v3h-1v-5.2h1v0.5c0.3-0.4,0.7-0.6,1.2-0.6c0.7,0,1.1,0.3,1.4,0.8
	c0.4-0.5,0.8-0.8,1.6-0.8c1.2,0,1.8,0.8,1.8,2.3v3C31.7,69.3,30.7,69.3,30.7,69.3z M35.5,69.4c-0.5,0-1-0.3-1.3-0.6v1.9l-1,0.5v-7.1
	h1v0.5c0.4-0.3,0.8-0.6,1.4-0.6c1.1,0,2,0.8,2,2.8C37.5,68.6,36.6,69.4,35.5,69.4z M35.4,65c-0.5,0-0.9,0.3-1.2,0.7v2.2
	c0.2,0.3,0.7,0.7,1.2,0.7c0.7,0,1.1-0.6,1.1-1.7C36.5,65.5,36.1,65,35.4,65z M38.9,69.3v-6.7l1-0.5v7.2H38.9z M42,63.5
	c-0.4,0-0.7-0.3-0.7-0.7s0.3-0.7,0.7-0.7s0.7,0.3,0.7,0.7S42.4,63.5,42,63.5z M41.5,69.3v-5.2h1v5.2H41.5z M45.9,63
	c-0.3,0-0.5,0.1-0.5,0.5v0.6h1v1h-1v4.3h-1v-4.3h-0.7v-1h0.7v-0.7c0-1,0.6-1.3,1.3-1.3c0.3,0,0.6,0,0.8,0.1v0.9L45.9,63z M49.4,71.2
	h-1.1l0.8-1.9l-1.9-5.1h1.1l0.9,2.5c0.2,0.5,0.4,1.2,0.5,1.5c0.1-0.3,0.3-1.1,0.5-1.5l0.9-2.6H52C52,64.1,49.4,71.2,49.4,71.2z
	 M58.5,69.4c-1.8,0-2.9-1.4-2.9-3.6s1.2-3.6,3-3.6s3,1.4,3,3.6S60.3,69.4,58.5,69.4z M58.5,63.3c-1.1,0-1.9,1-1.9,2.5
	s0.8,2.6,1.9,2.6c1.1,0,1.9-1,1.9-2.5C60.4,64.3,59.6,63.3,58.5,63.3z M65.1,69.4c-0.5,0-1-0.3-1.3-0.6v1.9l-1,0.5v-7.1h1v0.5
	c0.4-0.3,0.8-0.6,1.4-0.6c1.1,0,2,0.8,2,2.8C67.2,68.6,66.2,69.4,65.1,69.4z M65,65c-0.5,0-0.9,0.3-1.2,0.7v2.2
	c0.2,0.3,0.7,0.7,1.2,0.7c0.7,0,1.1-0.6,1.1-1.7C66.1,65.5,65.7,65,65,65z M72.6,67.1h-3.4c0.1,1,0.7,1.4,1.3,1.4
	c0.4,0,0.8-0.2,1.1-0.4l0.6,0.7c-0.5,0.4-1,0.7-1.8,0.7c-1.2,0-2.2-1-2.2-2.7c0-1.8,0.9-2.7,2.3-2.7c1.5,0,2.2,1.2,2.2,2.6
	L72.6,67.1z M70.4,64.9c-0.7,0-1.1,0.5-1.2,1.3h2.4C71.6,65.5,71.2,64.9,70.4,64.9z M76.7,65.2C76.5,65.1,76.3,65,76,65
	c-0.6,0-1,0.5-1,1.3v3h-1v-5.2h1v0.5c0.2-0.3,0.7-0.6,1.2-0.6c0.4,0,0.7,0.1,0.9,0.2C77.1,64.2,76.7,65.2,76.7,65.2z M80.7,69.3
	v-0.5c-0.4,0.4-0.9,0.6-1.4,0.6c-0.8,0-1.8-0.5-1.8-1.8c0-1.2,0.9-1.7,2.1-1.7c0.5,0,0.9,0.1,1.2,0.2v-0.4c0-0.6-0.3-0.9-1-0.9
	c-0.5,0-1,0.1-1.4,0.3L78,64.5c0.5-0.3,1.1-0.5,1.8-0.5c1.2,0,2,0.6,2,1.7v3.6C81.8,69.3,80.7,69.3,80.7,69.3z M80.7,67.1
	c-0.3-0.1-0.6-0.2-1.2-0.2c-0.7,0-1.1,0.3-1.1,0.8s0.3,0.9,1,0.9c0.5,0,1-0.3,1.3-0.7C80.7,67.9,80.7,67.1,80.7,67.1z M85.6,69.2
	c-0.2,0.1-0.6,0.2-1,0.2c-0.7,0-1.2-0.4-1.2-1.4v-3h-0.7v-0.9h0.7v-1.5l1-0.5v2h1.3V65h-1.3v2.8c0,0.5,0.2,0.6,0.5,0.6
	s0.6-0.1,0.8-0.2C85.7,68.2,85.6,69.2,85.6,69.2z M87.7,63.5c-0.4,0-0.7-0.3-0.7-0.7s0.3-0.7,0.7-0.7c0.4,0,0.7,0.3,0.7,0.7
	S88.1,63.5,87.7,63.5z M87.2,69.3v-5.2h1v5.2H87.2z M91.8,69.4c-1.3,0-2.3-1.1-2.3-2.7c0-1.7,1-2.7,2.3-2.7s2.3,1.1,2.3,2.7
	C94.2,68.4,93.2,69.4,91.8,69.4z M91.8,65c-0.8,0-1.2,0.7-1.2,1.7c0,1.1,0.5,1.8,1.3,1.8s1.3-0.8,1.3-1.7C93.1,65.7,92.6,65,91.8,65
	z M98.6,69.3v-2.9c0-1.1-0.4-1.4-1.1-1.4s-1.1,0.5-1.1,1.3v3h-1v-5.2h1v0.5c0.3-0.4,0.8-0.6,1.3-0.6c1.2,0,1.9,0.8,1.9,2.3v3
	C99.6,69.3,98.6,69.3,98.6,69.3z M102.8,69.4c-0.7,0-1.5-0.3-2-0.7l0.5-0.8c0.5,0.3,1,0.5,1.5,0.5c0.6,0,1-0.2,1-0.6
	s-0.5-0.6-1.2-0.9c-1.1-0.4-1.5-0.8-1.5-1.6c0-0.9,0.7-1.4,1.8-1.4c0.7,0,1.3,0.2,1.8,0.6l-0.4,0.8c-0.4-0.3-0.9-0.4-1.3-0.4
	c-0.5,0-0.7,0.2-0.7,0.5s0.2,0.4,1,0.8c1.2,0.4,1.8,0.8,1.8,1.7C104.7,69.1,103.8,69.4,102.8,69.4z M106.4,70.6h-0.7l0.1-2.6h1.3
	C107.1,68,106.4,70.6,106.4,70.6z M113.3,69.4c-1,0-1.9-0.4-2.5-1.1l0.7-0.7c0.5,0.5,1.1,0.8,1.8,0.8c1,0,1.4-0.3,1.4-1
	c0-0.5-0.4-0.8-1.6-1.1c-1.5-0.4-2.2-0.8-2.2-2s1-1.9,2.3-1.9c0.9,0,1.7,0.3,2.3,0.9l-0.7,0.7c-0.4-0.4-0.9-0.7-1.6-0.7
	c-0.8,0-1.2,0.4-1.2,0.9c0,0.5,0.3,0.7,1.5,1.1c1.4,0.4,2.2,0.9,2.2,2.1C115.9,68.6,115.1,69.4,113.3,69.4L113.3,69.4z M119.6,69.4
	c-0.5,0-1-0.3-1.3-0.6v1.9l-1,0.5v-7.1h1v0.5c0.4-0.3,0.8-0.6,1.4-0.6c1.1,0,2,0.8,2,2.8C121.7,68.6,120.7,69.4,119.6,69.4z
	 M119.5,65c-0.5,0-0.9,0.3-1.2,0.7v2.2c0.2,0.3,0.7,0.7,1.2,0.7c0.7,0,1.1-0.6,1.1-1.7C120.6,65.5,120.2,65,119.5,65z M127.1,67.1
	h-3.4c0.1,1,0.7,1.4,1.3,1.4c0.4,0,0.8-0.2,1.1-0.4l0.6,0.7c-0.5,0.4-1,0.7-1.8,0.7c-1.2,0-2.2-1-2.2-2.7c0-1.8,0.9-2.7,2.3-2.7
	c1.5,0,2.2,1.2,2.2,2.6L127.1,67.1z M124.9,64.9c-0.7,0-1.1,0.5-1.2,1.3h2.4C126.1,65.5,125.7,64.9,124.9,64.9z M131.6,69.3v-2.9
	c0-1.1-0.4-1.4-1.1-1.4c-0.7,0-1.1,0.5-1.1,1.3v3h-1v-5.2h1v0.5c0.3-0.4,0.8-0.6,1.3-0.6c1.2,0,1.9,0.8,1.9,2.3v3L131.6,69.3
	L131.6,69.3z M137.2,69.3v-0.5c-0.4,0.3-0.8,0.6-1.4,0.6c-1.1,0-2-0.8-2-2.8c0-1.8,1-2.6,2.1-2.6c0.5,0,1,0.3,1.3,0.6v-2l1-0.5v7.2
	L137.2,69.3L137.2,69.3z M137.2,65.6c-0.2-0.3-0.7-0.7-1.2-0.7c-0.7,0-1.1,0.6-1.1,1.7c0,1.3,0.4,1.9,1.2,1.9c0.5,0,0.9-0.3,1.2-0.7
	L137.2,65.6L137.2,65.6z M144.6,69.4c-1,0-1.9-0.4-2.5-1.1l0.7-0.7c0.5,0.5,1.1,0.8,1.8,0.8c1,0,1.4-0.3,1.4-1
	c0-0.5-0.4-0.8-1.6-1.1c-1.5-0.4-2.2-0.8-2.2-2s1-1.9,2.3-1.9c0.9,0,1.7,0.3,2.3,0.9l-0.7,0.7c-0.4-0.4-0.9-0.7-1.6-0.7
	c-0.8,0-1.2,0.4-1.2,0.9c0,0.5,0.3,0.7,1.5,1.1c1.4,0.4,2.2,0.9,2.2,2.1C147.2,68.6,146.4,69.4,144.6,69.4z M154.6,69.3v-2.9
	c0-1.1-0.3-1.4-1-1.4s-1,0.5-1,1.3v3h-1v-2.9c0-1.1-0.3-1.4-1-1.4s-1,0.5-1,1.3v3h-1v-5.2h1v0.5c0.3-0.4,0.7-0.6,1.2-0.6
	c0.7,0,1.1,0.3,1.4,0.8c0.4-0.5,0.8-0.8,1.6-0.8c1.2,0,1.8,0.8,1.8,2.3v3C155.6,69.3,154.6,69.3,154.6,69.3z M160.1,69.3v-0.5
	c-0.4,0.4-0.9,0.6-1.4,0.6c-0.8,0-1.8-0.5-1.8-1.8c0-1.2,0.9-1.7,2.1-1.7c0.5,0,0.9,0.1,1.2,0.2v-0.4c0-0.6-0.3-0.9-1-0.9
	c-0.5,0-1,0.1-1.4,0.3l-0.4-0.8c0.5-0.3,1.1-0.5,1.8-0.5c1.2,0,2,0.6,2,1.7v3.6h-1.1L160.1,69.3z M160.1,67.1
	c-0.3-0.1-0.6-0.2-1.2-0.2c-0.7,0-1.1,0.3-1.1,0.8s0.3,0.9,1,0.9c0.5,0,1-0.3,1.3-0.7C160.1,67.9,160.1,67.1,160.1,67.1z
	 M165.4,65.2c-0.2-0.1-0.4-0.2-0.8-0.2c-0.6,0-1,0.5-1,1.3v3h-1v-5.2h1v0.5c0.2-0.3,0.7-0.6,1.2-0.6c0.4,0,0.7,0.1,0.9,0.2
	L165.4,65.2L165.4,65.2z M169.3,69.2c-0.2,0.1-0.6,0.2-1,0.2c-0.7,0-1.2-0.4-1.2-1.4v-3h-0.7v-0.9h0.7v-1.5l1-0.5v2h1.3V65h-1.3v2.8
	c0,0.5,0.2,0.6,0.5,0.6s0.6-0.1,0.8-0.2L169.3,69.2z M174.8,67.1h-3.4c0.1,1,0.7,1.4,1.3,1.4c0.4,0,0.8-0.2,1.1-0.4l0.6,0.7
	c-0.5,0.4-1,0.7-1.8,0.7c-1.2,0-2.2-1-2.2-2.7c0-1.8,0.9-2.7,2.3-2.7c1.5,0,2.2,1.2,2.2,2.6C174.8,66.8,174.8,67,174.8,67.1
	L174.8,67.1z M172.6,64.9c-0.7,0-1.1,0.5-1.2,1.3h2.4C173.7,65.5,173.4,64.9,172.6,64.9z M178.9,65.2c-0.2-0.1-0.4-0.2-0.8-0.2
	c-0.6,0-1,0.5-1,1.3v3h-1v-5.2h1v0.5c0.2-0.3,0.7-0.6,1.2-0.6c0.4,0,0.7,0.1,0.9,0.2L178.9,65.2L178.9,65.2z M179.5,69.4
	c-0.4,0-0.8-0.4-0.8-0.8s0.4-0.8,0.8-0.8s0.8,0.4,0.8,0.8C180.3,69.1,179.9,69.4,179.5,69.4z"/>
</svg>
